<?xml version="1.0" encoding="UTF-8" standalone="no"?>
<!DOCTYPE svg PUBLIC "-//W3C//DTD SVG 1.1//EN" "http://www.w3.org/Graphics/SVG/1.1/DTD/svg11.dtd">
<svg xmlns="http://www.w3.org/2000/svg" version="1.1" viewBox="0.00 0.00 512.00 512.00">
<path fill="#999999" d="
  M 366.58 231.98
  Q 423.92 232.06 481.25 231.96
  C 490.83 231.94 486.01 244.63 484.25 249.36
  Q 461.76 309.92 439.31 370.50
  Q 437.94 374.20 437.91 380.25
  Q 437.86 389.87 437.80 399.50
  C 437.76 405.24 433.18 405.03 428.39 405.02
  Q 344.32 404.95 260.25 405.19
  C 256.35 405.20 252.82 405.24 250.66 408.99
  Q 249.53 410.95 250.44 413.10
  C 252.23 417.36 255.77 416.90 260.50 416.91
  Q 374.69 417.12 436.25 416.96
  C 441.69 416.95 445.80 417.41 450.34 420.70
  C 464.07 430.63 471.39 445.04 466.22 462.27
  C 461.85 476.87 449.24 485.98 434.29 486.56
  C 416.11 487.26 400.73 474.14 398.60 456.03
  A 2.33 2.32 -3.3 0 0 396.29 453.98
  L 328.24 453.96
  Q 327.18 453.96 327.04 455.02
  C 324.55 473.83 310.58 486.62 291.74 486.59
  C 274.30 486.57 258.72 472.63 257.78 454.66
  A 0.73 0.72 -2.4 0 0 257.02 453.97
  C 253.06 454.12 249.22 454.13 245.39 453.14
  Q 226.53 448.25 217.22 430.81
  A 1.15 1.14 -8.8 0 0 216.42 430.23
  Q 214.98 429.96 212.75 429.96
  Q 122.37 430.03 32.00 429.99
  C 24.38 429.98 25.00 425.70 25.00 419.40
  Q 25.00 226.52 25.00 33.64
  Q 25.00 29.61 25.20 28.88
  C 26.26 24.94 31.96 24.90 35.50 24.91
  Q 196.25 25.00 357.00 25.00
  C 361.15 25.00 366.02 26.36 366.02 31.50
  Q 365.93 131.46 366.03 231.43
  Q 366.03 231.98 366.58 231.98
  Z
  M 213.07 415.78
  C 211.95 403.78 214.51 393.01 222.12 383.76
  C 225.46 379.71 231.01 375.57 235.33 371.32
  Q 237.67 369.01 236.95 365.75
  Q 221.90 297.93 206.93 230.09
  Q 205.69 224.48 204.21 222.57
  Q 201.48 219.03 196.24 219.03
  Q 179.87 219.00 163.50 218.89
  C 155.92 218.84 150.44 213.44 148.10 206.46
  C 145.06 197.42 149.18 187.52 157.75 183.67
  Q 161.27 182.09 169.70 182.00
  Q 181.44 181.88 193.18 181.96
  Q 203.56 182.03 208.25 183.03
  C 221.63 185.90 232.97 195.26 238.88 207.51
  C 242.22 214.44 243.77 223.57 245.15 231.64
  A 0.49 0.48 -4.9 0 0 245.63 232.04
  L 352.51 231.98
  Q 353.00 231.98 353.00 231.49
  L 353.00 38.75
  A 0.75 0.75 0.0 0 0 352.25 38.00
  L 37.50 38.00
  Q 37.00 38.00 37.00 38.50
  L 37.00 416.50
  Q 37.00 417.00 37.50 417.00
  L 211.96 417.00
  A 1.11 1.11 0.0 0 0 213.07 415.78
  Z
  M 268.75 378.89
  C 264.11 378.74 263.65 373.81 262.79 369.98
  Q 246.65 297.28 230.38 224.61
  C 229.54 220.88 228.73 216.25 227.16 213.34
  Q 217.42 195.24 196.49 194.98
  Q 173.15 194.69 165.25 195.17
  C 158.21 195.60 158.96 205.65 165.74 206.48
  Q 170.51 207.07 173.50 206.97
  Q 187.50 206.49 201.50 207.13
  C 212.04 207.61 217.21 216.24 219.24 225.46
  Q 234.04 292.51 249.04 359.52
  C 250.64 366.66 251.44 373.86 245.87 379.60
  Q 242.83 382.74 236.44 388.18
  C 215.33 406.12 227.83 440.67 255.28 441.18
  C 256.43 441.20 256.89 441.47 257.91 441.91
  Q 258.43 442.14 258.69 441.63
  C 260.36 438.36 262.20 433.35 264.63 430.71
  A 0.43 0.43 0.0 0 0 264.31 429.99
  C 252.91 429.96 243.40 430.39 238.32 418.53
  C 235.08 410.97 237.50 402.42 243.28 397.15
  C 247.59 393.23 254.01 392.00 259.75 392.00
  Q 342.05 392.00 424.46 392.00
  Q 425.01 392.00 425.01 391.45
  L 425.02 380.02
  Q 425.02 379.01 424.01 379.01
  C 378.75 378.98 333.58 378.70 288.52 379.14
  Q 279.48 379.23 268.75 378.89
  Z
  M 426.23 366.00
  A 1.15 1.15 0.0 0 0 427.31 365.25
  L 470.92 246.55
  A 1.15 1.15 0.0 0 0 469.84 245.00
  L 249.87 245.00
  A 1.15 1.15 0.0 0 0 248.75 246.40
  L 275.22 365.10
  A 1.15 1.15 0.0 0 0 276.34 366.00
  L 426.23 366.00
  Z
  M 313.99 451.83
  A 21.70 21.70 0.0 0 0 292.29 430.13
  A 21.70 21.70 0.0 0 0 270.59 451.83
  A 21.70 21.70 0.0 0 0 292.29 473.53
  A 21.70 21.70 0.0 0 0 313.99 451.83
  Z
  M 320.18 430.55
  Q 322.29 433.95 324.13 437.18
  C 324.67 438.12 324.72 439.41 325.18 440.48
  Q 325.40 441.00 325.97 441.00
  L 398.77 441.00
  A 2.09 2.08 7.4 0 0 400.79 439.45
  Q 401.94 435.04 404.70 431.41
  A 0.88 0.88 0.0 0 0 404.00 430.00
  L 320.49 429.99
  A 0.37 0.37 0.0 0 0 320.18 430.55
  Z
  M 454.2325 446.6543
  A 21.74 21.72 -13.8 0 0 427.9391 430.7470
  A 21.74 21.72 -13.8 0 0 412.0075 457.0257
  A 21.74 21.72 -13.8 0 0 438.3009 472.9330
  A 21.74 21.72 -13.8 0 0 454.2325 446.6543
  Z"
/>
<path fill="#999999" d="
  M 78.39 149.14
  C 70.02 147.17 63.65 142.34 60.83 134.26
  Q 59.54 130.56 60.49 127.74
  C 61.99 123.30 68.59 121.30 71.83 125.30
  Q 72.49 126.10 72.96 128.46
  C 74.47 136.14 84.00 138.32 90.49 135.72
  C 94.11 134.27 100.29 130.41 94.92 126.35
  C 90.19 122.76 83.89 122.58 78.30 121.35
  Q 70.44 119.63 67.61 117.79
  C 59.91 112.79 58.00 100.90 62.69 93.48
  C 66.56 87.36 71.85 85.25 78.39 82.96
  A 0.86 0.85 78.8 0 0 78.96 82.10
  C 78.78 78.93 79.17 74.95 82.51 73.76
  C 87.78 71.88 92.43 76.05 91.86 81.65
  A 2.08 2.07 -82.2 0 0 93.56 83.90
  C 102.60 85.47 110.39 93.40 110.11 102.74
  C 109.95 108.12 103.32 111.03 99.26 107.61
  C 96.17 105.00 97.97 100.92 94.64 98.61
  Q 88.95 94.68 81.76 95.81
  Q 76.22 96.67 73.81 101.29
  C 72.01 104.73 77.30 107.44 79.80 108.00
  Q 88.03 109.83 96.26 111.73
  C 113.01 115.60 114.65 136.10 101.51 144.97
  Q 97.53 147.66 92.82 148.88
  A 1.16 1.15 -9.7 0 0 91.96 150.08
  Q 92.47 156.97 85.77 158.99
  Q 84.49 159.37 82.98 158.63
  C 78.20 156.30 79.16 154.46 78.99 149.86
  Q 78.96 149.27 78.39 149.14
  Z"
/>
<path fill="#999999" d="
  M 300.21 99.42
  C 302.48 103.17 300.59 108.88 295.50 108.88
  Q 217.62 109.00 139.75 109.13
  C 133.29 109.14 131.00 106.58 132.02 100.22
  C 132.87 94.90 143.55 96.05 147.50 96.05
  Q 220.25 95.97 293.00 96.03
  C 295.38 96.03 298.88 97.23 300.21 99.42
  Z"
/>
<path fill="#999999" d="
  M 298.47 124.95
  C 301.97 126.77 302.12 133.51 298.00 135.43
  Q 296.83 135.97 294.42 135.97
  Q 216.33 136.03 138.25 135.98
  Q 137.45 135.98 134.38 135.64
  C 131.12 135.28 131.81 128.13 132.28 126.48
  Q 132.93 124.25 135.75 124.24
  Q 213.82 124.01 291.88 123.99
  Q 296.61 123.99 298.47 124.95
  Z"
/>
<path fill="#999999" d="
  M 92.57 194.72
  C 102.18 198.05 111.13 204.40 110.19 214.91
  C 109.81 219.09 105.06 221.81 101.23 220.15
  Q 98.61 219.01 97.14 216.18
  A 1.59 1.57 -56.9 0 1 96.97 215.35
  Q 97.24 211.94 94.98 210.28
  C 88.69 205.66 77.09 205.08 73.57 213.58
  C 72.01 217.36 79.28 219.69 81.85 220.20
  C 94.52 222.74 108.18 223.62 110.17 238.21
  C 111.73 249.61 103.37 257.53 93.15 260.34
  A 1.61 1.60 79.3 0 0 91.98 262.07
  C 92.35 265.51 90.33 270.54 86.05 270.20
  C 78.86 269.63 79.46 267.75 78.83 261.46
  A 1.30 1.30 0.0 0 0 77.72 260.31
  C 68.46 258.99 60.73 251.14 60.09 241.75
  C 59.64 235.22 68.31 232.41 71.79 237.21
  Q 72.19 237.76 73.26 241.44
  C 75.17 247.97 84.07 248.95 89.62 247.61
  Q 94.91 246.33 97.09 241.63
  Q 97.30 241.17 97.18 240.68
  C 96.21 236.72 90.41 235.34 86.99 234.79
  Q 79.41 233.55 72.03 231.40
  C 63.73 228.99 58.78 220.60 60.17 212.19
  C 61.70 202.87 69.36 196.89 78.37 194.78
  A 0.87 0.87 0.0 0 0 79.04 193.86
  C 78.63 188.68 80.01 184.30 86.24 184.95
  C 90.67 185.42 92.06 190.35 92.07 194.02
  Q 92.07 194.54 92.57 194.72
  Z"
/>
<path fill="#999999" d="
  M 132.21 239.92
  C 133.23 235.83 136.12 236.05 139.61 236.04
  Q 171.20 235.91 185.75 236.05
  C 193.12 236.12 192.61 248.59 183.50 248.73
  Q 162.75 249.03 142.00 248.99
  C 135.77 248.97 130.18 248.04 132.21 239.92
  Z"
/>
<path fill="#999999" d="
  M 91.99 372.82
  C 91.93 377.16 91.41 381.26 86.26 381.99
  C 79.90 382.89 78.58 378.05 79.02 372.93
  A 0.84 0.83 3.9 0 0 78.22 372.02
  C 74.25 371.86 67.83 368.34 64.80 365.02
  C 60.67 360.51 55.72 346.35 67.24 346.90
  C 69.80 347.03 71.72 346.88 72.41 349.83
  C 73.32 353.71 73.75 356.55 77.81 358.43
  Q 86.96 362.66 94.93 356.69
  C 100.46 352.53 94.47 348.10 90.19 347.23
  C 81.90 345.53 68.19 343.99 63.45 337.33
  C 59.51 331.80 59.11 323.93 62.10 317.98
  C 65.06 312.10 71.44 308.25 77.76 306.61
  A 1.55 1.54 82.8 0 0 78.91 305.11
  C 78.91 301.82 78.88 297.96 82.98 297.07
  Q 90.87 295.37 91.90 302.75
  C 92.00 303.49 91.86 305.00 92.01 306.11
  Q 92.09 306.63 92.61 306.73
  C 100.44 308.16 107.72 313.94 109.71 321.83
  C 111.19 327.67 109.36 332.41 102.49 332.12
  C 96.81 331.89 98.18 326.48 95.72 323.18
  C 91.10 316.99 78.62 317.44 74.19 323.62
  C 70.75 328.41 78.60 331.29 81.72 331.95
  C 93.36 334.44 108.73 335.31 110.14 349.91
  C 111.25 361.32 103.56 369.93 92.53 372.16
  A 0.67 0.67 0.0 0 0 91.99 372.82
  Z"
/>
<path fill="#999999" d="
  M 141.25 334.01
  C 135.24 334.01 130.28 332.42 132.09 324.94
  Q 133.07 320.88 137.50 320.89
  Q 167.37 320.96 197.25 320.90
  Q 201.23 320.90 204.14 321.84
  C 206.56 322.62 206.21 326.83 205.98 329.00
  C 205.59 332.63 202.39 333.84 199.25 333.85
  Q 170.25 334.01 141.25 334.01
  Z"
/>
<rect fill="#999999" x="131.81" y="347.99" width="74.36" height="12.98" rx="6.00"/>
</svg>
